<?xml version="1.0" standalone="no"?><svg xmlns="http://www.w3.org/2000/svg" viewBox="0 0 1440 320"><path fill="#2fb921" fill-opacity="0.9" d="M0,0L40,26.7C80,53,160,107,240,117.3C320,128,400,96,480,106.7C560,117,640,171,720,186.7C800,203,880,181,960,176C1040,171,1120,181,1200,170.7C1280,160,1360,128,1400,112L1440,96L1440,320L1400,320C1360,320,1280,320,1200,320C1120,320,1040,320,960,320C880,320,800,320,720,320C640,320,560,320,480,320C400,320,320,320,240,320C160,320,80,320,40,320L0,320Z"></path></svg>